<svg width="167" height="154" viewBox="0 0 167 154" fill="none" xmlns="http://www.w3.org/2000/svg">
<path d="M47.5906 72.9058C47.5906 82.8469 55.6495 90.9058 65.5906 90.9058L92.5906 90.9058C95.352 90.9058 97.5906 88.6672 97.5906 85.9058L97.5906 51.9058C97.5906 46.3829 93.1134 41.9058 87.5906 41.9058L52.5906 41.9058C49.8291 41.9058 47.5906 44.1443 47.5906 46.9058L47.5906 72.9058Z" fill="#FFF1DA"/>
<path d="M96.1744 86.8472C94.816 87.1514 93.493 87.715 92.2875 88.5024C89.1467 90.5037 87.3194 93.3604 88.2063 94.8826C89.0933 96.4047 92.3583 96.0154 95.4991 94.0141C96.7209 93.2545 97.8063 92.2837 98.6884 91.1618C99.0978 90.6197 99.1713 89.9442 98.8761 89.4393L97.7239 87.4619C97.4307 86.9554 96.8226 86.7145 96.1744 86.8472Z" fill="#D5D6DB"/>
<path d="M88.2875 59.8541C87.3025 60.0748 86.3431 60.4837 85.4688 61.0547C83.192 62.5055 81.8662 64.5769 82.5088 65.6797C83.1514 66.7825 85.5199 66.4999 87.7965 65.0493C88.6824 64.4982 89.4693 63.794 90.1091 62.9803C90.4056 62.5874 90.4587 62.098 90.2447 61.732L89.4105 60.3002C89.1982 59.933 88.7576 59.758 88.2875 59.8541Z" fill="#D5D6DB"/>
<path d="M75.4733 60.9845C75.254 60.96 75.0202 61.0184 74.8174 61.1479L69.4693 64.5562C69.0219 64.8404 68.8429 65.3877 69.0698 65.7789C69.1217 65.8685 69.1927 65.9451 69.279 66.0041L82.4606 75.089L100.294 63.7243L75.4733 60.9845Z" fill="#029BC5"/>
<path d="M131.85 59.6999L83.3181 90.252L54.6054 101.677L39.9623 104.588L38.3513 101.851L119.246 51.9043C121.657 50.4095 124.343 49.4919 127.032 49.2448C128.209 49.1429 129.372 49.1821 130.493 49.3609C131.487 49.5116 132.43 49.8023 133.294 50.2244C134.258 50.7026 136.092 50.7578 136.687 51.7106C136.689 51.7091 138.091 56.0835 131.85 59.6999Z" fill="#E1E6E9"/>
<path d="M83.9615 86.2095L62.9662 119.679C62.704 120.15 62.8597 120.676 63.3135 120.855C63.5921 120.965 63.933 120.922 64.2194 120.74L69.5634 117.35C70.5913 116.697 71.5014 115.869 72.2375 114.915L112.954 67.0462L83.9615 86.2095Z" fill="#029BC5"/>
<path d="M30.9819 85.092C30.6317 84.9723 30.2149 85.0344 29.8631 85.2584L25.4456 88.0718C24.8437 88.4549 24.6038 89.1913 24.9097 89.717C24.9679 89.8169 25.0436 89.9049 25.1344 89.9773L37.5111 99.8896L50.5241 91.7615L30.9819 85.092Z" fill="#029BC5"/>
<path d="M41.6595 101.677L34.998 111.006C34.9003 111.14 34.9233 111.308 35.0492 111.382C35.1401 111.435 35.2641 111.425 35.3649 111.358L39.4931 108.742C39.5252 108.721 39.5542 108.696 39.5782 108.667L49.3118 96.832L41.6595 101.677Z" fill="#029BC5"/>
<path d="M129.697 49.7631C128.542 49.5777 127.344 49.5381 126.132 49.6447C124.951 51.2958 124.196 53.1505 123.943 55.0239C123.924 55.4002 124.227 55.6711 124.62 55.6289C124.742 55.6156 124.864 55.5727 124.973 55.504L132.581 50.6597C131.692 50.2211 130.72 49.9193 129.697 49.7631Z" fill="#029BC5"/>
<path d="M113.117 58.6713L118.084 55.5343L122.711 63.4033L117.744 66.5403L113.117 58.6713Z" fill="#D5D6DB"/>
<path d="M109.992 61.7834C109.394 62.1625 109.154 62.8913 109.458 63.411L109.95 64.253C110.274 64.7595 111.014 64.8485 111.602 64.4518C112.162 64.074 112.387 63.3874 112.117 62.8803L111.625 62.0383C111.321 61.5191 110.591 61.4048 109.992 61.7834Z" fill="#3A556A"/>
<path d="M105.528 64.5559C104.929 64.9351 104.69 65.6639 104.994 66.1836L105.486 67.0256C105.81 67.532 106.549 67.6211 107.137 67.2244C107.697 66.8466 107.923 66.1599 107.653 65.6529L107.161 64.8109C106.857 64.2918 106.126 64.1775 105.528 64.5559Z" fill="#3A556A"/>
<path d="M101.062 67.3292C100.464 67.7089 100.226 68.4368 100.529 68.956L101.021 69.798C101.345 70.3044 102.085 70.3935 102.673 69.9968C103.233 69.619 103.458 68.9324 103.188 68.4254L102.696 67.5834C102.392 67.0637 101.661 66.9499 101.062 67.3292Z" fill="#3A556A"/>
<path d="M96.5975 70.1017C95.9996 70.4813 95.7612 71.2092 96.0648 71.7285L96.5571 72.5705C96.881 73.077 97.6202 73.166 98.2085 72.7693C98.7683 72.3915 98.9938 71.7049 98.724 71.1978L98.2317 70.3558C97.9276 69.8363 97.196 69.7225 96.5975 70.1017Z" fill="#3A556A"/>
<path d="M92.1335 72.8743C91.5353 73.2541 91.2967 73.9824 91.6005 74.5019L92.0931 75.3442C92.3968 75.8635 93.1281 75.9772 93.7264 75.5982C94.3248 75.2192 94.5637 74.491 94.26 73.9718L93.7674 73.1294C93.4645 72.6097 92.7335 72.4952 92.1348 72.8735C92.1343 72.8738 92.134 72.874 92.1335 72.8743Z" fill="#3A556A"/>
<path d="M87.6691 75.6468C87.0709 76.0266 86.8324 76.7548 87.1362 77.2743L87.6288 78.1167C87.9325 78.6359 88.6637 78.7497 89.2621 78.3707C89.8604 77.9917 90.0993 77.2635 89.7957 76.7442L89.3031 75.9019C89.0002 75.3821 88.2692 75.2677 87.6704 75.646C87.6699 75.6463 87.6694 75.6466 87.6691 75.6468Z" fill="#3A556A"/>
<path d="M83.2045 78.4193C82.6063 78.7991 82.3678 79.5273 82.6716 80.0468L83.1642 80.8891C83.4686 81.4078 84.2002 81.5204 84.7979 81.1409C85.3946 80.7621 85.633 80.0355 85.3308 79.5168L84.8382 78.6745C84.5346 78.1549 83.8034 78.0406 83.2045 78.4193Z" fill="#3A556A"/>
<path d="M78.7399 81.1917C78.1417 81.5715 77.9032 82.2998 78.207 82.8192L78.6996 83.6616C79.004 84.1804 79.7356 84.293 80.3333 83.9135C80.93 83.5346 81.1684 82.808 80.8662 82.2893L80.3736 81.447C80.07 80.9273 79.3388 80.813 78.7399 81.1917Z" fill="#3A556A"/>
<path d="M74.2756 83.9642C73.6773 84.344 73.4388 85.0722 73.7426 85.5917L74.2352 86.434C74.5396 86.9528 75.2712 87.0653 75.869 86.6859C76.4657 86.307 76.7041 85.5804 76.4018 85.0617L75.9092 84.2194C75.6054 83.7 74.8742 83.5856 74.2756 83.9642Z" fill="#3A556A"/>
<path d="M69.8097 86.7374C69.2114 87.1164 68.9725 87.8445 69.2762 88.3638L69.2768 88.3649L69.7694 89.2072C70.0738 89.726 70.8054 89.8386 71.4031 89.4591C71.9999 89.0803 72.2382 88.3536 71.936 87.835L71.4434 86.9926C71.1399 86.473 70.4086 86.3586 69.8097 86.7374Z" fill="#3A556A"/>
<path d="M65.3466 89.5091C64.7483 89.8881 64.5094 90.6163 64.813 91.1355L64.8137 91.1366L65.3063 91.9789C65.6107 92.4977 66.3423 92.6103 66.94 92.2308C67.5368 91.852 67.7752 91.1253 67.4729 90.6067L66.9803 89.7644C66.6765 89.2449 65.9453 89.1306 65.3466 89.5091Z" fill="#3A556A"/>
</svg>
