<svg width="370" height="327" viewBox="0 0 370 327" fill="none" xmlns="http://www.w3.org/2000/svg">
  <rect width="370" height="327" rx="24" fill="#B1DAFF"/>
  <path d="M0 240C90 198 176 201 260 168C313 147 350 118 370 96V327H0V240Z" fill="#F2B544"/>
  <path d="M33 290V145L106 105L154 96L202 88L276 104V290H33Z" fill="#C98D47"/>
  <path d="M50 282V130H141V282H50Z" fill="#D5A261"/>
  <path d="M146 282V118H258V282H146Z" fill="#B97D3C"/>
  <path d="M62 148H128" stroke="#8A5A27" stroke-width="4"/>
  <path d="M161 136H243" stroke="#8A5A27" stroke-width="4"/>
  <path d="M62 176H128" stroke="#8A5A27" stroke-width="4"/>
  <path d="M161 165H243" stroke="#8A5A27" stroke-width="4"/>
  <path d="M62 205H128" stroke="#8A5A27" stroke-width="4"/>
  <path d="M161 194H243" stroke="#8A5A27" stroke-width="4"/>
  <path d="M62 234H128" stroke="#8A5A27" stroke-width="4"/>
  <path d="M161 223H243" stroke="#8A5A27" stroke-width="4"/>
  <circle cx="330" cy="264" r="55" fill="#FFD95A" fill-opacity=".52"/>
  <path d="M28 72C110 18 202 12 344 42" stroke="white" stroke-opacity=".9" stroke-width="9" stroke-linecap="round"/>
  <path d="M31 95C115 55 225 46 360 76" stroke="white" stroke-opacity=".75" stroke-width="8" stroke-linecap="round"/>
</svg>
