<svg width="14" height="14" viewBox="0 0 14 14" fill="none" xmlns="http://www.w3.org/2000/svg">
<g clip-path="url(#clip0_202_1596)">
<path d="M13.5008 3.56123e-08C13.4231 -2.92608e-05 13.3465 0.0180173 13.277 0.0527336L9.48809 1.94771L5.20366 0.0432416C5.19666 0.0402533 5.18866 0.039726 5.18116 0.0367378C5.16188 0.0295308 5.14217 0.0235251 5.12216 0.0187497C5.10227 0.0133885 5.08205 0.00919911 5.06166 0.00624017C5.02106 0.00290038 4.98025 0.00290038 4.93967 0.00624017C4.91928 0.00919911 4.89907 0.0133885 4.87917 0.0187497C4.85916 0.0235251 4.83945 0.0295308 4.82017 0.0367378C4.81267 0.039726 4.80467 0.040224 4.79767 0.0432416L0.29774 2.04322C0.117098 2.12343 0.000703131 2.30255 0.000732427 2.50019V13.5C0.000820317 13.6692 0.0863952 13.8268 0.228219 13.919C0.370072 14.0114 0.548986 14.0257 0.7037 13.957L5.00064 12.047L9.29757 13.957C9.30507 13.96 9.31307 13.957 9.32057 13.9615C9.44162 14.0157 9.58058 14.0126 9.69905 13.953C9.70705 13.9496 9.71604 13.953 9.72404 13.9475L13.724 11.9476C13.8935 11.8629 14.0006 11.6896 14.0005 11.5V0.500237C14.0006 0.224088 13.7769 0.000117221 13.5008 3.56123e-08ZM4.50066 11.1751L1.00071 12.7305V2.8252L4.50066 1.26971V11.1751ZM9.00059 12.7305L5.50064 11.1751V1.26971L9.00059 2.82517V12.7305ZM13.0005 11.1911L10.0006 12.691V2.80918L13.0005 1.3092V11.1911Z" fill="#84829A"/>
</g>
<defs>
<clipPath id="clip0_202_1596">
<rect width="14" height="14" fill="white"/>
</clipPath>
</defs>
</svg>
