<svg width="46" height="46" viewBox="0 0 46 46" fill="none" xmlns="http://www.w3.org/2000/svg">
  <circle cx="23" cy="23" r="23" fill="white"/>
  <path d="M33 16.4C32.2 16.7 31.3 17 30.4 17.1C31.3 16.6 31.9 15.8 32.3 14.8C31.5 15.3 30.6 15.6 29.6 15.8C28.8 14.9 27.7 14.4 26.4 14.4C24 14.4 22.1 16.3 22.1 18.6C22.1 18.9 22.1 19.2 22.2 19.5C18.7 19.3 15.6 17.7 13.5 15.2C13.1 15.8 12.9 16.5 12.9 17.3C12.9 18.8 13.6 20.2 14.8 21C14.1 21 13.4 20.8 12.9 20.5V20.6C12.9 22.7 14.4 24.4 16.4 24.8C16.1 24.9 15.7 25 15.3 25C15 25 14.8 25 14.5 24.9C15 26.6 16.6 27.8 18.5 27.8C17 29 15.2 29.7 13.2 29.7C12.8 29.7 12.4 29.7 12 29.6C13.9 30.8 16.1 31.5 18.5 31.5C26.4 31.5 30.7 24.9 30.7 19.2V18.6C31.5 18.1 32.3 17.3 33 16.4Z" fill="#080809"/>
</svg>
