<svg width="393" height="361" viewBox="0 0 393 361" fill="none" xmlns="http://www.w3.org/2000/svg">
<g opacity="0.1">
<mask id="mask0_202_1515" style="mask-type:alpha" maskUnits="userSpaceOnUse" x="0" y="0" width="393" height="361">
<rect x="392.5" y="0.500017" width="360" height="392" transform="rotate(90 392.5 0.500017)" fill="url(#paint0_linear_202_1515)" stroke="#6246E5"/>
</mask>
<g mask="url(#mask0_202_1515)">
<path d="M275.045 328.202C275.045 397.635 218.839 453.92 149.506 453.92C80.173 453.92 23.9658 397.635 23.9658 328.202C23.9658 258.77 80.173 202.485 149.506 202.485C218.839 202.485 275.045 258.77 275.045 328.202Z" stroke="#6246E5"/>
<path d="M303.238 318.238C303.238 395.925 240.349 458.903 162.773 458.903C85.1972 458.903 22.3075 395.925 22.3074 318.238C22.3074 240.55 85.1971 177.573 162.773 177.573C240.349 177.573 303.238 240.55 303.238 318.238Z" stroke="#6246E5"/>
<path d="M327.285 309.935C327.285 394.96 258.456 463.885 173.552 463.885C88.6492 463.885 19.8203 394.96 19.82 309.935C19.8201 224.909 88.6491 155.983 173.552 155.983C258.456 155.983 327.285 224.909 327.285 309.935Z" stroke="#6246E5"/>
<path d="M354.649 301.63C354.649 393.076 280.622 467.207 189.307 467.207C97.9927 467.206 23.9666 393.076 23.9665 301.63C23.9665 210.185 97.9927 136.055 189.307 136.054C280.622 136.054 354.649 210.185 354.649 301.63Z" stroke="#6246E5"/>
<path d="M381.184 293.741C381.184 391.378 302.145 470.528 204.647 470.528C107.15 470.527 28.1123 391.378 28.1123 293.741C28.1123 196.105 107.15 116.956 204.647 116.955C302.145 116.955 381.184 196.105 381.184 293.741Z" stroke="#6246E5"/>
<path d="M416.01 280.456C416.01 387.724 329.175 474.68 222.061 474.68C114.947 474.68 28.112 387.724 28.1118 280.456C28.1118 173.189 114.947 86.2317 222.061 86.2316C329.175 86.2316 416.01 173.188 416.01 280.456Z" stroke="#6246E5"/>
</g>
</g>
<defs>
<linearGradient id="paint0_linear_202_1515" x1="649.035" y1="11.0261" x2="469.689" y2="426.133" gradientUnits="userSpaceOnUse">
<stop stop-color="#747DEF"/>
<stop offset="1" stop-color="#5E3BE1"/>
</linearGradient>
</defs>
</svg>
