<svg width="97" height="253" viewBox="0 0 97 253" fill="none" xmlns="http://www.w3.org/2000/svg">
<path d="M8.45817 13.7344C15.485 5.21795 33.2527 -7.87603 48.1094 7.87933C62.9661 23.6347 42.923 53.1228 31.0443 65.8974C25.1886 69.4459 12.9754 75.4784 10.9677 71.2202C8.45816 65.8974 6.95241 54.7196 27.5309 45.1387C40.748 39.461 69.2902 33.4286 77.7224 54.7196C81.5704 63.9457 82.2396 85.3787 54.1324 97.3017L18.9984 112.738M18.9984 112.738C5.61398 113.274 -13.6261 106.892 16.4888 77.0752C26.0252 72.4621 49.1133 63.1296 65.1746 62.7038C74.3763 64.6554 92.0772 74.3074 89.2665 97.3017C89.6011 101.915 83.3439 113.376 55.6382 122.319C49.2806 123.738 35.0597 126.683 29.0367 127.109L7.45439 130.303L18.9984 112.738ZM18.9984 112.738C27.7808 110.254 48.5085 106.031 61.1592 109.012C76.9727 112.738 83.2435 109.544 95.7913 130.303C97.9663 140.948 96.3936 162.772 72.7033 164.901C49.0129 167.03 33.7212 162.949 29.0367 160.643V140.948M29.0367 140.948C46.2691 142.545 83.2435 141.374 93.2818 123.915C98.1336 111.496 98.5017 86.1239 61.1592 83.9948C52.1248 84.3496 32.8513 85.4852 28.0329 87.1884L29.0367 124.98C46.6037 126.577 83.5446 134.135 90.7722 151.594C94.6202 161.707 95.8917 182.998 70.1937 187.256C60.6573 187.611 39.075 186.298 29.0367 178.208M29.0367 140.948V178.208M29.0367 140.948C39.9115 143.61 63.8696 150.955 72.7033 159.046C83.4108 167.917 99.104 189.918 76.2167 206.951C69.0225 209.612 49.9163 211.741 31.0443 198.966M29.0367 178.208L31.0443 198.966M29.0367 178.208C41.0827 186.724 65.6765 207.376 67.6841 221.854C68.5207 230.725 66.2788 249.213 50.619 252.194C46.6037 252.904 36.6658 252.833 29.0367 246.871L31.0443 198.966" stroke="#84829A"/>
</svg>
